<svg version="1.1"
       xmlns="http://www.w3.org/2000/svg"
       xmlns:xlink="http://www.w3.org/1999/xlink"
       width="26"
       height="20">
       <g>
              <rect height="19.7979"
                     opacity="0"
                     width="25.3301"
                     x="0"
                     y="0" />
              <path
                     d="M3.37305 19.7979L21.957 19.7979C24.2129 19.7979 25.3301 18.6807 25.3301 16.4678L25.3301 3.35156C25.3301 1.13867 24.2129 0.0214844 21.957 0.0214844L3.37305 0.0214844C1.12793 0.0214844 0 1.12793 0 3.35156L0 16.4678C0 18.6914 1.12793 19.7979 3.37305 19.7979ZM3.39453 18.0684C2.32031 18.0684 1.72949 17.499 1.72949 16.3818L1.72949 3.4375C1.72949 2.32031 2.32031 1.75098 3.39453 1.75098L21.9355 1.75098C22.999 1.75098 23.6006 2.32031 23.6006 3.4375L23.6006 16.3818C23.6006 17.499 22.999 18.0684 21.9355 18.0684ZM8.18555 18.4014L9.87207 18.4014L9.87207 1.42871L8.18555 1.42871ZM6.12305 5.73633C6.44531 5.73633 6.73535 5.44629 6.73535 5.13477C6.73535 4.8125 6.44531 4.5332 6.12305 4.5332L3.81348 4.5332C3.49121 4.5332 3.21191 4.8125 3.21191 5.13477C3.21191 5.44629 3.49121 5.73633 3.81348 5.73633ZM6.12305 8.51855C6.44531 8.51855 6.73535 8.22852 6.73535 7.90625C6.73535 7.58398 6.44531 7.31543 6.12305 7.31543L3.81348 7.31543C3.49121 7.31543 3.21191 7.58398 3.21191 7.90625C3.21191 8.22852 3.49121 8.51855 3.81348 8.51855ZM6.12305 11.29C6.44531 11.29 6.73535 11.0215 6.73535 10.6992C6.73535 10.377 6.44531 10.0977 6.12305 10.0977L3.81348 10.0977C3.49121 10.0977 3.21191 10.377 3.21191 10.6992C3.21191 11.0215 3.49121 11.29 3.81348 11.29Z"
                     fill="#000000"
                     fill-opacity="0.85" />
       </g>
</svg>